<svg id="Camada_1" data-name="Camada 1" xmlns="http://www.w3.org/2000/svg" xmlns:xlink="http://www.w3.org/1999/xlink" viewBox="0 0 780 1230.49"><defs><style>.cls-1{fill:#202024;}.cls-2{fill:none;}.cls-3{clip-path:url(#clip-path);}.cls-4{fill:url(#Gradiente_sem_nome);}.cls-5{fill:url(#Gradiente_sem_nome_2);}.cls-6{mask:url(#mask);}.cls-7{fill:url(#Gradiente_sem_nome_3);}.cls-8{opacity:0.4;}.cls-9{fill:url(#Gradiente_sem_nome_4);}.cls-10{fill:url(#Gradiente_sem_nome_5);}.cls-11{fill:url(#Gradiente_sem_nome_6);}.cls-12{fill:url(#Gradiente_sem_nome_7);}.cls-13{fill:url(#Gradiente_sem_nome_8);}.cls-14{fill:url(#Gradiente_sem_nome_9);}</style><clipPath id="clip-path" transform="translate(202 418.49)"><rect class="cls-2" width="375" height="812"/></clipPath><radialGradient id="Gradiente_sem_nome" cx="-352.44" cy="945.83" r="1" gradientTransform="matrix(0, -300, -300, 0, 284228, -105215.51)" gradientUnits="userSpaceOnUse"><stop offset="0" stop-color="#ffc323"/><stop offset="1" stop-color="#121214" stop-opacity="0"/></radialGradient><radialGradient id="Gradiente_sem_nome_2" cx="-352.44" cy="945.83" r="1" gradientTransform="matrix(0, -300, -300, 0, 284048, -105215.51)" gradientUnits="userSpaceOnUse"><stop offset="0" stop-color="#ff3d6e"/><stop offset="1" stop-color="#121214" stop-opacity="0"/></radialGradient><mask id="mask" x="201.96" y="0" width="375.04" height="1230.49" maskUnits="userSpaceOnUse"><g transform="translate(202 418.49)"><g id="mask0_61385:181" data-name="mask0 61385:181"><rect class="cls-1" width="375" height="812"/></g></g></mask><linearGradient id="Gradiente_sem_nome_3" x1="-0.85" y1="950.09" x2="503.21" y2="776.67" gradientTransform="matrix(1, 0, 0, -1, 0, 814)" gradientUnits="userSpaceOnUse"><stop offset="0" stop-color="#ff008e"/><stop offset="1" stop-color="#ffcd1e"/></linearGradient><linearGradient id="Gradiente_sem_nome_4" x1="139.83" y1="622.63" x2="46.94" y2="781.15" gradientTransform="matrix(1, 0, 0, -1, 0, 814)" gradientUnits="userSpaceOnUse"><stop offset="0" stop-color="#8257e5"/><stop offset="1" stop-color="#ff008e" stop-opacity="0"/></linearGradient><linearGradient id="Gradiente_sem_nome_5" x1="139.82" y1="730.04" x2="46.94" y2="888.55" xlink:href="#Gradiente_sem_nome_4"/><linearGradient id="Gradiente_sem_nome_6" x1="93.6" y1="917.21" x2="279.9" y2="804.79" gradientTransform="matrix(1, 0, 0, -1, 0, 814)" gradientUnits="userSpaceOnUse"><stop offset="0" stop-color="#ff008e" stop-opacity="0"/><stop offset="1" stop-color="#ffcd1e"/></linearGradient><linearGradient id="Gradiente_sem_nome_7" x1="376.52" y1="641.69" x2="190.23" y2="754.11" xlink:href="#Gradiente_sem_nome_6"/><linearGradient id="Gradiente_sem_nome_8" x1="237.01" y1="730.04" x2="329.9" y2="888.55" xlink:href="#Gradiente_sem_nome_4"/><linearGradient id="Gradiente_sem_nome_9" x1="143.72" y1="721.45" x2="236.61" y2="562.94" xlink:href="#Gradiente_sem_nome_4"/></defs><g class="cls-3"><rect class="cls-1" x="202" y="418.49" width="375" height="812"/><circle class="cls-4" cx="480" cy="517.49" r="300"/><circle class="cls-5" cx="300" cy="517.49" r="300"/><g class="cls-6"><path class="cls-7" d="M375,168.1V-310.7L187.48-418.49,0-310.7V168.1L187.48,275.89Z" transform="translate(202 418.49)"/><g class="cls-8"><path class="cls-9" d="M1.84,61.39V168.8l93.29,53.71,93.29-53.71V61.39L95.13,7.69Z" transform="translate(202 418.49)"/><path class="cls-10" d="M1.84-46V61.39L95.13,115.1l93.29-53.71V-46L95.13-99.72Z" transform="translate(202 418.49)"/><path class="cls-11" d="M281.71-99.7V7.71L188.42,61.42,95.13,7.71V-99.7l93.29-53.7Z" transform="translate(202 418.49)"/><path class="cls-12" d="M188.42,168.8V61.39l93.29-53.7L375,61.39V168.8l-93.29,53.7Z" transform="translate(202 418.49)"/><path class="cls-13" d="M375-46V61.39L281.71,115.1,188.42,61.39V-46l93.29-53.7Z" transform="translate(202 418.49)"/><path class="cls-14" d="M281.71,222.53V115.12l-93.29-53.7-93.29,53.7V222.53l93.29,53.7Z" transform="translate(202 418.49)"/></g></g></g></svg>